<svg width="64" height="64" viewBox="0 0 64 64" fill="none" xmlns="http://www.w3.org/2000/svg">
<g clip-path="url(#clip0_153_15385)">
<path d="M32.2496 55.7898C28.8786 55.7898 25.5168 54.9118 22.5052 53.1511L14.1301 48.238C12.5015 47.2872 11.9556 45.1945 12.9064 43.5841C13.8571 41.9555 15.9316 41.4096 17.5602 42.3604L25.9353 47.2735C29.8249 49.5527 34.6561 49.5527 38.5457 47.2735L55.0366 37.2835C56.6516 36.3327 58.7397 36.8786 59.6905 38.5072C60.6412 40.1358 60.0953 42.2103 58.4667 43.161L41.9758 53.1511C38.9779 54.9118 35.6069 55.7898 32.2314 55.7898H32.2496Z" fill="#478D54"/>
<path d="M50.4101 32.3066L14.0619 9.4059C14.0619 9.4059 13.9163 9.33312 13.8435 9.30582L13.7571 9.24668C10.9456 7.53163 7.57468 7.45884 4.70413 9.07381C1.83812 10.6751 0.136719 13.5866 0.136719 16.8711V35.6685C0.136719 38.348 1.55152 40.8136 3.87162 42.1557C4.99528 42.8199 6.27815 43.1519 7.53374 43.1519C8.78932 43.1519 10.1723 42.7926 11.3369 42.0692L30.6346 29.9183L24.2475 25.8968L8.06145 36.1598C8.06145 36.1598 7.65657 36.4328 7.31083 36.2735C7.07882 36.1735 6.96509 35.9141 6.96509 35.6548V16.8711C6.96509 15.7338 7.72935 15.1834 8.06145 14.9969C8.26161 14.8968 8.65284 14.7103 9.12596 14.7103C9.44441 14.7103 9.80379 14.7831 10.1632 15.0151L46.8025 38.0614C47.3666 38.4208 47.999 38.58 48.6177 38.58C49.7413 38.58 50.8513 38.0159 51.5019 36.9923C52.5118 35.4046 52.0205 33.3029 50.4374 32.293L50.4101 32.3066Z" fill="#141F15"/>
<path d="M64.135 16.8848C64.135 13.6139 62.42 10.6888 59.554 9.08746C56.7016 7.48614 53.3125 7.54528 50.4737 9.28762L33.8555 19.8372L40.2244 23.8587L54.0767 15.0788C55.0548 14.4874 55.9237 14.8467 56.2376 15.0333C56.5697 15.2198 57.334 15.7702 57.334 16.8939V32.7615C57.334 34.6358 58.8625 36.1644 60.7368 36.1644C62.611 36.1644 64.1396 34.6358 64.1396 32.7615V16.8848H64.135Z" fill="#141F15"/>
</g>
<defs>
<clipPath id="clip0_153_15385">
<rect width="64" height="64" fill="white"/>
</clipPath>
</defs>
</svg>
