<svg width="1192" height="615" viewBox="0 0 1192 615" fill="none" xmlns="http://www.w3.org/2000/svg">
<rect x="1.29054" y="1.43729" width="274.419" height="53.2455" rx="15.7006" fill="#222324"/>
<rect x="1.29054" y="1.43729" width="274.419" height="53.2455" rx="15.7006" stroke="#2A2C2D" stroke-width="1.36527"/>
<g clip-path="url(#clip0_448_6918)">
<rect x="22.4521" y="17.1379" width="21.8443" height="21.8443" rx="5.46108" fill="#25A360"/>
<g clip-path="url(#clip1_448_6918)">
<path d="M28.5962 28.06L32.0094 31.4732L38.8357 24.6468" stroke="#222324" stroke-width="1.63832" stroke-linecap="round" stroke-linejoin="round"/>
</g>
</g>
<rect x="23.1348" y="17.8205" width="20.479" height="20.479" rx="4.77844" stroke="#535455" stroke-width="1.36527"/>
<rect x="55.2188" y="25.3295" width="109.222" height="5.46108" rx="2.73054" fill="#3A3B3D"/>
<rect x="201.985" y="20.5509" width="35.497" height="15.018" rx="4.77844" fill="#3A3B3D"/>
<rect x="201.985" y="20.5509" width="35.497" height="15.018" rx="4.77844" stroke="#535455" stroke-width="1.36527"/>
<rect x="244.308" y="20.5507" width="15.018" height="15.018" rx="7.50898" fill="#3A3B3D"/>
<rect x="244.308" y="20.5507" width="15.018" height="15.018" rx="7.50898" stroke="#535455" stroke-width="1.36527"/>
<rect x="916.291" y="1.43729" width="274.419" height="53.2455" rx="15.7006" fill="#222324"/>
<rect x="916.291" y="1.43729" width="274.419" height="53.2455" rx="15.7006" stroke="#2A2C2D" stroke-width="1.36527"/>
<g clip-path="url(#clip2_448_6918)">
<rect x="937.452" y="17.1379" width="21.8443" height="21.8443" rx="5.46108" fill="#25A360"/>
<g clip-path="url(#clip3_448_6918)">
<path d="M943.596 28.06L947.009 31.4732L953.836 24.6468" stroke="#222324" stroke-width="1.63832" stroke-linecap="round" stroke-linejoin="round"/>
</g>
</g>
<rect x="938.135" y="17.8205" width="20.479" height="20.479" rx="4.77844" stroke="#535455" stroke-width="1.36527"/>
<rect x="970.219" y="25.3295" width="109.222" height="5.46108" rx="2.73054" fill="#3A3B3D"/>
<rect x="1116.98" y="20.5509" width="35.497" height="15.018" rx="4.77844" fill="#3A3B3D"/>
<rect x="1116.98" y="20.5509" width="35.497" height="15.018" rx="4.77844" stroke="#535455" stroke-width="1.36527"/>
<rect x="1159.31" y="20.5507" width="15.018" height="15.018" rx="7.50898" fill="#3A3B3D"/>
<rect x="1159.31" y="20.5507" width="15.018" height="15.018" rx="7.50898" stroke="#535455" stroke-width="1.36527"/>
<rect x="299.291" y="61.4373" width="274.419" height="53.2455" rx="15.7006" fill="#222324"/>
<rect x="299.291" y="61.4373" width="274.419" height="53.2455" rx="15.7006" stroke="#2A2C2D" stroke-width="1.36527"/>
<g clip-path="url(#clip4_448_6918)">
<rect x="320.452" y="77.1379" width="21.8443" height="21.8443" rx="5.46108" fill="#25A360"/>
<g clip-path="url(#clip5_448_6918)">
<path d="M326.596 88.06L330.009 91.4732L336.836 84.6468" stroke="#222324" stroke-width="1.63832" stroke-linecap="round" stroke-linejoin="round"/>
</g>
</g>
<rect x="321.135" y="77.8205" width="20.479" height="20.479" rx="4.77844" stroke="#535455" stroke-width="1.36527"/>
<rect x="353.219" y="85.3295" width="109.222" height="5.46108" rx="2.73054" fill="#3A3B3D"/>
<rect x="499.985" y="80.5509" width="35.497" height="15.018" rx="4.77844" fill="#3A3B3D"/>
<rect x="499.985" y="80.5509" width="35.497" height="15.018" rx="4.77844" stroke="#535455" stroke-width="1.36527"/>
<rect x="542.308" y="80.5507" width="15.018" height="15.018" rx="7.50898" fill="#3A3B3D"/>
<rect x="542.308" y="80.5507" width="15.018" height="15.018" rx="7.50898" stroke="#535455" stroke-width="1.36527"/>
<rect x="625.291" y="61.4373" width="274.419" height="53.2455" rx="15.7006" fill="#222324"/>
<rect x="625.291" y="61.4373" width="274.419" height="53.2455" rx="15.7006" stroke="#2A2C2D" stroke-width="1.36527"/>
<g clip-path="url(#clip6_448_6918)">
<rect x="646.452" y="77.1379" width="21.8443" height="21.8443" rx="5.46108" fill="#25A360"/>
<g clip-path="url(#clip7_448_6918)">
<path d="M652.596 88.06L656.009 91.4732L662.836 84.6468" stroke="#222324" stroke-width="1.63832" stroke-linecap="round" stroke-linejoin="round"/>
</g>
</g>
<rect x="647.135" y="77.8205" width="20.479" height="20.479" rx="4.77844" stroke="#535455" stroke-width="1.36527"/>
<rect x="679.219" y="85.3295" width="109.222" height="5.46108" rx="2.73054" fill="#3A3B3D"/>
<rect x="825.985" y="80.5509" width="35.497" height="15.018" rx="4.77844" fill="#3A3B3D"/>
<rect x="825.985" y="80.5509" width="35.497" height="15.018" rx="4.77844" stroke="#535455" stroke-width="1.36527"/>
<rect x="868.308" y="80.5507" width="15.018" height="15.018" rx="7.50898" fill="#3A3B3D"/>
<rect x="868.308" y="80.5507" width="15.018" height="15.018" rx="7.50898" stroke="#535455" stroke-width="1.36527"/>
<g clip-path="url(#clip8_448_6918)">
<rect x="192.074" y="181" width="800" height="434" rx="18.1651" fill="#111312"/>
<rect width="800" height="36.1101" transform="translate(192.074 181)" fill="#090A0C"/>
<circle cx="216.294" cy="199.055" r="6.05505" fill="#FF5652"/>
<circle cx="234.459" cy="199.055" r="6.05505" fill="#FEBC0E"/>
<circle cx="252.625" cy="199.055" r="6.05505" fill="#21D12C"/>
<rect x="228.404" y="232.248" width="727.339" height="32" rx="12" fill="#222324"/>
<rect x="240.404" y="244.248" width="65" height="8" rx="2" fill="#3A3B3D"/>
<rect x="743.744" y="244.248" width="60" height="8" rx="2" fill="#3A3B3D"/>
<rect x="813.744" y="244.248" width="60" height="8" rx="2" fill="#3A3B3D"/>
<rect x="883.744" y="244.248" width="60" height="8" rx="2" fill="#3A3B3D"/>
<rect x="228.404" y="276.358" width="727.339" height="128" rx="12" fill="#222324"/>
<g clip-path="url(#clip9_448_6918)">
<path d="M595.074 336.358H595.084" stroke="#3A3B3D" stroke-width="2" stroke-linecap="round" stroke-linejoin="round"/>
<path d="M583.074 334.358C583.074 333.562 583.39 332.799 583.953 332.236C584.516 331.674 585.279 331.358 586.074 331.358H598.074C598.87 331.358 599.633 331.674 600.196 332.236C600.758 332.799 601.074 333.562 601.074 334.358V346.358C601.074 347.153 600.758 347.916 600.196 348.479C599.633 349.042 598.87 349.358 598.074 349.358H586.074C585.279 349.358 584.516 349.042 583.953 348.479C583.39 347.916 583.074 347.153 583.074 346.358V334.358Z" stroke="#3A3B3D" stroke-width="2" stroke-linecap="round" stroke-linejoin="round"/>
<path d="M583.074 344.358L588.074 339.358C589.002 338.465 590.146 338.465 591.074 339.358L596.074 344.358" stroke="#3A3B3D" stroke-width="2" stroke-linecap="round" stroke-linejoin="round"/>
<path d="M594.074 342.358L595.074 341.358C596.002 340.465 597.146 340.465 598.074 341.358L601.074 344.358" stroke="#3A3B3D" stroke-width="2" stroke-linecap="round" stroke-linejoin="round"/>
</g>
<rect x="228.404" y="416.468" width="235" height="176" rx="12" fill="#222324"/>
<rect x="240.404" y="428.468" width="211" height="8" rx="2" fill="#3A3B3D"/>
<rect x="240.404" y="444.468" width="156" height="8" rx="2" fill="#3A3B3D"/>
<rect x="240.404" y="460.468" width="189" height="8" rx="2" fill="#3A3B3D"/>
<rect x="240.404" y="476.468" width="93" height="8" rx="2" fill="#3A3B3D"/>
<rect x="240.404" y="492.468" width="199" height="8" rx="2" fill="#3A3B3D"/>
<rect x="240.404" y="508.468" width="156" height="8" rx="2" fill="#3A3B3D"/>
<rect x="240.404" y="524.468" width="207" height="8" rx="2" fill="#3A3B3D"/>
<rect x="240.404" y="540.468" width="40" height="8" rx="2" fill="#3A3B3D"/>
<rect x="240.404" y="556.468" width="183" height="8" rx="2" fill="#3A3B3D"/>
<rect x="240.404" y="572.468" width="211" height="8" rx="2" fill="#3A3B3D"/>
<rect x="475.404" y="416.468" width="235" height="176" rx="12" fill="#222324"/>
<rect x="487.404" y="428.468" width="211" height="8" rx="2" fill="#3A3B3D"/>
<rect x="487.404" y="444.468" width="156" height="8" rx="2" fill="#3A3B3D"/>
<rect x="487.404" y="460.468" width="189" height="8" rx="2" fill="#3A3B3D"/>
<rect x="487.404" y="476.468" width="93" height="8" rx="2" fill="#3A3B3D"/>
<rect x="487.404" y="492.468" width="199" height="8" rx="2" fill="#3A3B3D"/>
<rect x="487.404" y="508.468" width="156" height="8" rx="2" fill="#3A3B3D"/>
<rect x="487.404" y="524.468" width="207" height="8" rx="2" fill="#3A3B3D"/>
<rect x="487.404" y="540.468" width="40" height="8" rx="2" fill="#3A3B3D"/>
<rect x="487.404" y="556.468" width="183" height="8" rx="2" fill="#3A3B3D"/>
<rect x="487.404" y="572.468" width="211" height="8" rx="2" fill="#3A3B3D"/>
<rect x="722.404" y="416.468" width="235" height="176" rx="12" fill="#222324"/>
<rect x="734.404" y="428.468" width="211" height="8" rx="2" fill="#3A3B3D"/>
<rect x="734.404" y="444.468" width="156" height="8" rx="2" fill="#3A3B3D"/>
<rect x="734.404" y="460.468" width="189" height="8" rx="2" fill="#3A3B3D"/>
<rect x="734.404" y="476.468" width="93" height="8" rx="2" fill="#3A3B3D"/>
<rect x="734.404" y="492.468" width="199" height="8" rx="2" fill="#3A3B3D"/>
<rect x="734.404" y="508.468" width="156" height="8" rx="2" fill="#3A3B3D"/>
<rect x="734.404" y="524.468" width="207" height="8" rx="2" fill="#3A3B3D"/>
<rect x="734.404" y="540.468" width="40" height="8" rx="2" fill="#3A3B3D"/>
<rect x="734.404" y="556.468" width="183" height="8" rx="2" fill="#3A3B3D"/>
<rect x="734.404" y="572.468" width="211" height="8" rx="2" fill="#3A3B3D"/>
</g>
<rect x="192.831" y="181.757" width="798.486" height="432.486" rx="17.4083" stroke="#2A2C2D" stroke-width="1.51376"/>
<path d="M124.441 56.2547C124.441 57.7274 125.635 58.9213 127.108 58.9213C128.581 58.9213 129.775 57.7274 129.775 56.2547C129.775 54.7819 128.581 53.588 127.108 53.588C125.635 53.588 124.441 54.7819 124.441 56.2547ZM586.441 180.5C586.441 181.973 587.635 183.167 589.108 183.167C590.581 183.167 591.775 181.973 591.775 180.5C591.775 179.027 590.581 177.833 589.108 177.833C587.635 177.833 586.441 179.027 586.441 180.5ZM126.608 56.2547V126.255H127.608V56.2547H126.608ZM139.108 138.755H577.108V137.755H139.108V138.755ZM588.608 150.255V180.5H589.608V150.255H588.608ZM577.108 138.755C583.459 138.755 588.608 143.903 588.608 150.255H589.608C589.608 143.351 584.011 137.755 577.108 137.755V138.755ZM126.608 126.255C126.608 133.158 132.204 138.755 139.108 138.755V137.755C132.757 137.755 127.608 132.606 127.608 126.255H126.608Z" fill="#353536"/>
<path d="M1056.27 54.7547C1056.27 56.2274 1055.08 57.4213 1053.61 57.4213C1052.14 57.4213 1050.94 56.2274 1050.94 54.7547C1050.94 53.2819 1052.14 52.088 1053.61 52.088C1055.08 52.088 1056.27 53.2819 1056.27 54.7547ZM592.167 180.5C592.167 181.973 590.973 183.167 589.5 183.167C588.027 183.167 586.833 181.973 586.833 180.5C586.833 179.027 588.027 177.833 589.5 177.833C590.973 177.833 592.167 179.027 592.167 180.5ZM1054.11 54.7547V125.815H1053.11V54.7547H1054.11ZM1041.61 138.315H601.5V137.315H1041.61V138.315ZM590 149.815V180.5H589V149.815H590ZM601.5 138.315C595.149 138.315 590 143.464 590 149.815H589C589 142.912 594.596 137.315 601.5 137.315V138.315ZM1054.11 125.815C1054.11 132.719 1048.51 138.315 1041.61 138.315V137.315C1047.96 137.315 1053.11 132.166 1053.11 125.815H1054.11Z" fill="#353536"/>
<path d="M273.941 27.7547C273.941 29.2274 275.135 30.4213 276.607 30.4213C278.08 30.4213 279.274 29.2274 279.274 27.7547C279.274 26.2819 278.08 25.088 276.607 25.088C275.135 25.088 273.941 26.2819 273.941 27.7547ZM770.941 60.2547C770.941 61.7274 772.135 62.9213 773.608 62.9213C775.08 62.9213 776.274 61.7274 776.274 60.2547C776.274 58.7819 775.08 57.588 773.608 57.588C772.135 57.588 770.941 58.7819 770.941 60.2547ZM276.607 28.2547H343.607V27.2547H276.607V28.2547ZM358.607 43.2547H761.608V42.2547H358.607V43.2547ZM773.108 54.7547V60.2547H774.108V54.7547H773.108ZM761.608 43.2547C767.959 43.2547 773.108 48.4034 773.108 54.7547H774.108C774.108 47.8511 768.511 42.2547 761.608 42.2547V43.2547ZM350.607 35.2547C350.607 39.6729 354.189 43.2547 358.607 43.2547V42.2547C354.741 42.2547 351.607 39.1206 351.607 35.2547H350.607ZM343.607 28.2547C347.473 28.2547 350.607 31.3887 350.607 35.2547H351.607C351.607 30.8364 348.026 27.2547 343.607 27.2547V28.2547Z" fill="#353536"/>
<path d="M569.333 91C569.333 92.4728 570.527 93.6667 572 93.6667C573.473 93.6667 574.667 92.4728 574.667 91C574.667 89.5272 573.473 88.3333 572 88.3333C570.527 88.3333 569.333 89.5272 569.333 91ZM622.333 91C622.333 92.4728 623.527 93.6667 625 93.6667C626.473 93.6667 627.667 92.4728 627.667 91C627.667 89.5272 626.473 88.3333 625 88.3333C623.527 88.3333 622.333 89.5272 622.333 91ZM572 91.5L625 91.5L625 90.5L572 90.5L572 91.5Z" fill="#353536"/>
<defs>
<clipPath id="clip0_448_6918">
<rect x="22.4521" y="17.1379" width="21.8443" height="21.8443" rx="5.46108" fill="white"/>
</clipPath>
<clipPath id="clip1_448_6918">
<rect width="16.3832" height="16.3832" fill="white" transform="translate(25.1826 19.8684)"/>
</clipPath>
<clipPath id="clip2_448_6918">
<rect x="937.452" y="17.1379" width="21.8443" height="21.8443" rx="5.46108" fill="white"/>
</clipPath>
<clipPath id="clip3_448_6918">
<rect width="16.3832" height="16.3832" fill="white" transform="translate(940.183 19.8684)"/>
</clipPath>
<clipPath id="clip4_448_6918">
<rect x="320.452" y="77.1379" width="21.8443" height="21.8443" rx="5.46108" fill="white"/>
</clipPath>
<clipPath id="clip5_448_6918">
<rect width="16.3832" height="16.3832" fill="white" transform="translate(323.183 79.8684)"/>
</clipPath>
<clipPath id="clip6_448_6918">
<rect x="646.452" y="77.1379" width="21.8443" height="21.8443" rx="5.46108" fill="white"/>
</clipPath>
<clipPath id="clip7_448_6918">
<rect width="16.3832" height="16.3832" fill="white" transform="translate(649.183 79.8684)"/>
</clipPath>
<clipPath id="clip8_448_6918">
<rect x="192.074" y="181" width="800" height="434" rx="18.1651" fill="white"/>
</clipPath>
<clipPath id="clip9_448_6918">
<rect width="24" height="24" fill="white" transform="translate(580.074 328.358)"/>
</clipPath>
</defs>
</svg>
