<?xml version="1.0" encoding="utf-8"?>
<!-- Generator: Adobe Illustrator 18.1.0, SVG Export Plug-In . SVG Version: 6.00 Build 0)  -->
<svg version="1.1" id="pic_1" xmlns="http://www.w3.org/2000/svg" xmlns:xlink="http://www.w3.org/1999/xlink" x="0px" y="0px"
	 viewBox="180 0 245 210" enable-background="new 0 0 430 210" xml:space="preserve">
<g>
	<g>
		<path d="M390.6,105.5V10l-54.1,54.1h-66.6L215.8,10v95.5l-25.9,25.9c0,0,76.3,13.5,113.3,65l0,0c0,0,0,0,0,0c0,0,0,0,0,0l0,0
			c37.1-51.5,113.3-65,113.3-65L390.6,105.5z M302.4,156.1L265.3,115l9.3-8.7l22.7,19.2c9.8-10.7,31.3-31.9,60.5-48.2l2.2,5.7
			C332.7,106,309.9,139,302.4,156.1z" fill="#32D583"/>
	</g>
</g>
</svg>
